<svg xmlns="http://www.w3.org/2000/svg" width="1235.265" height="240" viewBox="0 0 1235.265 240"><path fill="#9fc03d" d="M1235.265 60.007l-103.941 59.979-103.912-59.979L1131.324 0z"/><path fill="#a9c44f" d="M1235.265 60.007v119.986L1131.324 240V119.986z"/><path fill="#98bc24" d="M1131.324 119.986V240l-103.912-60.007V60.007z"/><path d="M1123.054 189.045c-.653 0-1.31-.147-1.914-.444l-49.888-24.475a4.346 4.346 0 0 1 .838-8.109l46.62-11.932V58.489c0-1.437.71-2.78 1.898-3.59a4.332 4.332 0 0 1 4.033-.455l44.281 17.377a4.347 4.347 0 0 1 1.575 7.024l-25 26.516 25.069 27.858a4.342 4.342 0 0 1-2.153 7.113l-41.015 10.498v33.871a4.35 4.35 0 0 1-2.047 3.688 4.34 4.34 0 0 1-2.297.656zm-37.4-27.533l33.056 16.22v-24.679l-33.056 8.46zm41.744-96.651v77l31.908-8.167-22.945-25.495a4.344 4.344 0 0 1 .068-5.886l23.338-24.752-32.369-12.7z" fill="#fff"/><path d="M0 155.265h15.872V84.883H0v70.382zm71.212-29.97c0 12.531-4.596 18.38-12.95 18.38-8.04 0-12.739-6.163-12.739-18.38V84.882H29.651v39.263c0 22.348 10.337 32.267 28.09 32.267 18.378 0 29.343-10.337 29.343-32.058V84.883H71.212v40.411zm24.32-40.412v13.366h19.004v57.016h15.872V98.249h19.215V84.883H95.532z" fill="#a4c538"/><path d="M210.971 120.933v-.379c5.38-1.227 8.873-6.986 8.873-15.196 0-12.177-8.307-16.803-18.124-16.803h-19.35v66.17h19.633c14.16 0 21.144-6.89 21.144-18.313 0-9.534-5.097-14.63-12.176-15.479zM187.94 93.748h12.46c8.117 0 13.685 3.114 13.685 12.082 0 9.534-4.341 13.027-13.12 13.027H187.94V93.748zm14.253 55.784H187.94v-25.485h13.97c8.4 0 15.385 2.644 15.385 12.837 0 9.345-4.908 12.648-15.102 12.648zm53.42-46.44c-10.383 0-20.955 6.985-20.955 25.958 0 19.255 7.74 26.24 21.805 26.24 6.607 0 12.083-1.982 15.291-4.248l-2.548-4.53c-2.265 1.793-6.984 3.682-11.987 3.682-10.572 0-16.236-4.91-16.991-18.69h32.848c.283-3.02.473-6.23.473-8.685 0-11.987-6.136-19.726-17.935-19.726zm12.27 23.316h-27.655c.755-14.064 7.929-18.219 14.725-18.219 8.967 0 13.026 5.38 13.026 14.82 0 .755 0 2.076-.095 3.4zm26.144 17.366V83.08h-5.475v62.203c0 6.137 2.926 10.102 9.628 10.102 1.7 0 4.436-.282 6.324-1.134v-4.907a10.311 10.311 0 0 1-4.909 1.228c-4.153 0-5.568-2.079-5.568-6.8zm23.782-48.705v8.779h-8.684v4.719h8.684v46.158h5.476v-46.158h13.78v-4.72h-13.78V94.88c0-4.813 2.075-7.267 7.173-7.267 3.304 0 5.286.283 7.174.943l1.32-4.813c-1.887-.66-4.152-1.133-7.645-1.133-9.155 0-13.498 4.814-13.498 12.46zm47.666 7.834c-15.01 0-20.768 10.761-20.768 26.526 0 15.479 5.286 26.05 20.2 26.05 15.008 0 20.767-10.854 20.767-26.619 0-15.478-5.286-25.957-20.2-25.957zm0 47.48c-10.572 0-15.103-7.079-15.103-21.523 0-14.064 3.964-20.86 14.536-20.86s15.102 6.985 15.102 21.429c0 14.062-3.964 20.954-14.535 20.954zm39.544-41.344h-.378l-1.226-5.191h-4.06v50.877h5.476V115.93c2.265-5.193 7.456-7.269 12.648-7.269 1.887 0 3.775.283 5.663.85v-5.853c-1.133-.283-2.831-.565-5.38-.565-5.664 0-10.383 2.643-12.743 5.946zm42 41.155c-4.813 0-7.929-2.548-7.929-8.872v-32.755h14.348v-4.72H439.09V90.35h-3.963l-1.51 13.499-7.836 1.132v3.587h7.835v33.414c0 8.778 4.154 13.216 12.46 13.216 5.38 0 8.59-1.038 10.572-2.076l-1.605-4.627c-1.133.662-3.303 1.7-8.024 1.7zm79.927-11.42h-.565l-20.672-50.219h-9.44v66.17h5.57V95.164h.565l20.767 49.65h6.985c6.797-16.33 14.065-33.322 20.861-49.65h.566v59.56h5.569V88.556h-9.44l-20.766 50.218zm65.692-35.871c-15.01 0-20.768 10.761-20.768 26.526 0 15.479 5.286 26.05 20.2 26.05 15.008 0 20.767-10.854 20.767-26.619 0-15.478-5.286-25.957-20.2-25.957zm0 47.48c-10.572 0-15.103-7.079-15.103-21.523 0-14.064 3.964-20.86 14.536-20.86s15.102 6.985 15.102 21.429c0 14.062-3.963 20.954-14.535 20.954zm54.268-47.48c-8.685 0-13.78 5.193-14.726 6.513h-.377l-1.228-5.568h-4.058v50.877h5.475v-36.813c1.888-5.286 7.174-9.911 14.158-9.911 7.741 0 11.99 4.625 11.99 13.025v33.699h5.473v-35.02c-.282-11.233-6.513-16.802-16.707-16.802zm47.946 47.29c-4.813 0-7.927-2.547-7.927-8.871v-32.755h14.348v-4.72h-14.348V90.35h-3.965l-1.51 13.499-7.835 1.132v3.587h7.835v33.414c0 8.778 4.154 13.216 12.46 13.216 5.38 0 8.59-1.038 10.573-2.076l-1.607-4.627c-1.131.662-3.303 1.7-8.024 1.7zm39.171-46.723c-6.985 0-11.516 2.926-13.026 4.247h-.377V83.08h-5.475v70.04c2.738 1.414 7.551 2.548 13.31 2.548 16.8 0 24.73-11.327 24.73-28.13 0-16.99-8.78-24.069-19.162-24.069zm-4.34 47.103c-3.59 0-6.893-.662-9.063-1.607v-34.83c2.642-3.587 7.456-5.664 11.797-5.664 7.458 0 15.103 4.344 15.103 20.106 0 14.537-7.266 21.995-17.838 21.995zm55.401-47.48c-10.382 0-20.954 6.984-20.954 25.957 0 19.255 7.74 26.24 21.805 26.24 6.607 0 12.083-1.982 15.29-4.248l-2.548-4.53c-2.266 1.793-6.986 3.682-11.986 3.682-10.572 0-16.237-4.91-16.992-18.69h32.85c.282-3.02.469-6.23.469-8.685 0-11.987-6.134-19.726-17.934-19.726zm12.272 23.315h-27.657c.755-14.064 7.93-18.219 14.726-18.219 8.966 0 13.024 5.38 13.024 14.82 0 .755 0 2.076-.093 3.4zm-15.668-33.415l3.775 2.642 17.744-11.043-5.758-3.116-15.761 11.517zm41.81 50.78V83.082h-5.476v62.203c0 6.137 2.927 10.102 9.627 10.102 1.7 0 4.437-.282 6.324-1.134v-4.907a10.31 10.31 0 0 1-4.907 1.228c-4.155 0-5.569-2.079-5.569-6.8zm25.67-59.748c-2.547 0-4.53 1.982-4.53 4.625 0 2.548 1.983 4.531 4.53 4.531 2.642 0 4.625-1.983 4.625-4.53 0-2.644-1.983-4.626-4.624-4.626zm-2.264 70.7h5.475v-50.877h-5.475v50.877zm56.063-12.744v-23.786c0-10.194-6.227-15.01-16.516-15.01-10.29 0-15.01 5.666-16.71 8.025l4.062 3.4c1.603-2.363 5-6.326 12.365-6.326 7.455 0 11.703 2.643 11.703 11.704v5.948c-18.5-.19-29.733 5.38-29.733 16.517 0 6.703 5.286 13.31 14.63 13.31 8.969 0 13.12-4.248 15.669-7.08h.379c1.13 3.493 4.151 6.324 9.25 6.324.566 0 1.228-.093 1.511-.19v-4.244h-1.227c-3.872 0-5.383-3.59-5.383-8.592zm-5.096 1.227c-2.455 3.872-7.551 7.834-14.065 7.834-6.513 0-10.1-4.058-10.1-9.061 0-8.494 11.045-11.704 24.165-11.327v12.554zm30.106-34.17h-.376l-1.227-5.19h-4.059v50.877h5.476V115.93c2.265-5.193 7.455-7.269 12.648-7.269 1.886 0 3.775.283 5.662.85v-5.853c-1.132-.283-2.831-.565-5.38-.565-5.665 0-10.382 2.643-12.744 5.946zm54.933-25.957v21.615c-2.455-.47-5.569-.755-8.024-.755-15.289 0-24.636 9.913-24.636 27.468 0 16.709 7.175 24.354 18.878 24.354 6.513 0 11.423-3.021 13.5-6.514h.378l1.414 5.476h3.965V83.08h-5.475zm0 58.43c-2.076 5.38-6.134 9.248-12.837 9.248-7.173 0-14.158-4.624-14.158-20.105 0-14.065 6.134-21.615 18.971-21.615 2.266 0 5.855.472 8.024 1.038v31.434zm-524.743-9.966h21.487v-5.419h-21.487v5.419z"/></svg>